:SAMPLES-PER-SECOND 30
:FULLY-SPECIFIED
:DEGREES
1970
root  10.126 39.172 -4.34183 107.72 85.4159 105.366
RightUpLeg  -19.1593 -17.3079 -16.8323
RightLeg  24.8451 -9.22573 -4.85133
RightFoot  -2.18083 -0.296428 3.51165
RightToes  0.000481921 0.542163 -0.142578
Spine  22.3182 -0.0858462 2.03325
Spine1  -5.10827 0.446266 -1.15059
HEad  -19.7077 -2.51201 1.83451
LeftShoulder1  8.54506 -13.5495 -43.6016
LeftArm  5.84451 1.09045 -35.9878
LeftForeArm  -176.639 -63.5761 -161.518
LeftHand  -0.25398 0.0180481 5.50724
RightShoulder  4.91627 9.70499 31.2724
RightArm  4.37997 -11.8468 45.0638
RightForeArm  169.514 64.3348 159.492
RightHand  -1.01203 2.22008 -15.5993
LeftUpLeg  -18.2001 21.585 -0.0464544
LeftLeg  21.4904 -0.0346569 0.323866
LeftFoot  -3.6851 0.493599 -7.03373
LeftToes  1.06245e-005 4.65868e-005 -8.65517e-006
1971
root  9.97284 39.1028 -5.00349 98.491 85.3715 95.7875
RightUpLeg  -21.2882 -15.8115 -16.8493
RightLeg  27.2239 -9.66471 -5.58123
RightFoot  -3.48692 -0.218135 2.82023
RightToes  0.000481921 0.542163 -0.142578
Spine  23.4813 -0.166084 3.16632
Spine1  -5.37741 0.75113 -2.14703
HEad  -20.211 -2.42385 0.956689
LeftShoulder1  8.51257 -13.3985 -43.8358
LeftArm  5.96346 0.318369 -35.7035
LeftForeArm  -176.5 -63.6031 -161.51
LeftHand  -0.25398 0.0180481 5.50724
RightShoulder  5.03405 9.82081 31.8347
RightArm  4.55544 -11.5937 44.5966
RightForeArm  169.415 64.5571 159.287
RightHand  -1.03408 2.34711 -15.6822
LeftUpLeg  -19.2995 20.7798 -1.50698
LeftLeg  22.686 1.42378 0.992596
LeftFoot  -4.58449 0.387633 -6.09825
LeftToes  1.06245e-005 4.65868e-005 -8.65517e-006
1972
root  9.80593 39.0835 -5.53606 88.5989 85.4569 85.4768
RightUpLeg  -23.7958 -16.6539 -15.2398
RightLeg  30.2696 -9.92066 -6.43809
RightFoot  -5.24541 -0.157356 2.28667
RightToes  0.000481921 0.542163 -0.142578
Spine  24.7943 -0.139658 3.83148
Spine1  -5.66112 0.950362 -2.25289
HEad  -20.8622 -1.84663 0.546224
LeftShoulder1  8.46562 -13.3151 -43.8087
LeftArm  5.89605 0.299148 -35.9251
LeftForeArm  -176.022 -63.4068 -161.708
LeftHand  -0.25398 0.0180481 5.50724
RightShoulder  5.24844 10.1187 32.5852
RightArm  4.93214 -10.7946 43.6759
RightForeArm  169.191 64.9402 158.92
RightHand  -1.0577 2.46967 -15.794
LeftUpLeg  -20.3419 19.8353 -2.48508
LeftLeg  23.4691 3.05682 1.79085
LeftFoot  -5.06917 0.313613 -5.1731
LeftToes  1.06245e-005 4.65868e-005 -8.65517e-006
1973
root  9.63279 39.0685 -5.96256 79.9486 85.6669 76.2305
RightUpLeg  -26.454 -18.9751 -12.3105
RightLeg  33.4675 -10.1435 -7.38437
RightFoot  -7.13917 -0.149323 2.81033
RightToes  0.000481921 0.542163 -0.142578
Spine  25.8196 -0.120257 4.48551
Spine1  -5.70334 1.10002 -2.15759
HEad  -21.3968 -1.32527 0.577422
LeftShoulder1  8.47766 -13.4339 -43.5502
LeftArm  5.8631 0.556683 -36.3355
LeftForeArm  -175.774 -63.1543 -161.924
LeftHand  -0.25398 0.0180481 5.50724
RightShoulder  5.4127 10.4089 32.9624
RightArm  5.14138 -9.9694 43.2552
RightForeArm  168.949 65.1921 158.663
RightHand  -1.07481 2.56206 -15.866
LeftUpLeg  -21.5611 19.4456 -3.08909
LeftLeg  24.0878 4.03849 2.31009
LeftFoot  -5.3185 0.280778 -4.73117
LeftToes  1.06245e-005 4.65868e-005 -8.65517e-006
1974
root  9.46914 38.9965 -6.29995 75.1109 85.7963 70.5616
RightUpLeg  -29.0104 -21.6762 -8.85098
RightLeg  36.0782 -9.17678 -7.36056
RightFoot  -8.5309 -0.173124 4.68361
RightToes  0.000481921 0.542163 -0.142578
Spine  26.5634 -0.214862 5.0336
Spine1  -5.73266 1.15598 -2.30119
HEad  -21.7725 -1.08257 0.794584
LeftShoulder1  8.51355 -13.5791 -43.3517
LeftArm  6.04374 0.652597 -36.5705
LeftForeArm  -175.947 -62.9548 -162.057
LeftHand  -0.25398 0.0180481 5.50724
RightShoulder  5.43723 10.5053 32.8685
RightArm  5.40005 -9.17267 43.4191
RightForeArm  168.841 65.1204 158.717
RightHand  -1.07735 2.58762 -15.8542
LeftUpLeg  -23.2299 19.4864 -3.78961
LeftLeg  24.9799 4.35434 2.54953
LeftFoot  -5.68416 0.255856 -4.4858
LeftToes  1.06245e-005 4.65868e-005 -8.65517e-006
1975
root  9.32605 38.8574 -6.54456 78.6217 85.6217 73.1423
RightUpLeg  -30.8972 -24.1742 -5.61947
RightLeg  37.3126 -6.82419 -5.82222
RightFoot  -9.28119 -0.165165 5.6362
RightToes  0.000481921 0.542163 -0.142578
Spine  27.2183 -0.412138 4.91445
Spine1  -5.89759 0.938096 -2.21933
HEad  -22.2758 -1.01468 1.01599
LeftShoulder1  8.51917 -13.6147 -43.2866
LeftArm  6.42947 0.451984 -36.6793
LeftForeArm  -176.2 -62.8727 -162.095
LeftHand  -0.25398 0.0180481 5.50724
RightShoulder  5.39271 10.4664 32.6583
RightArm  5.89514 -8.19751 43.623
RightForeArm  168.673 64.8087 158.984
RightHand  -1.07561 2.57597 -15.8512
LeftUpLeg  -25.2022 19.4138 -4.94379
LeftLeg  26.148 4.28549 2.62784
LeftFoot  -6.16497 0.222788 -4.1089
LeftToes  1.06245e-005 4.65868e-005 -8.65517e-006
1976
root  9.19774 38.6717 -6.71021 88.2693 85.2357 81.9316
RightUpLeg  -31.9249 -25.5757 -3.15113
RightLeg  37.3119 -5.02219 -4.36424
RightFoot  -10.0867 -0.109669 3.40406
RightToes  0.000481921 0.542163 -0.142578
Spine  27.8217 -0.644881 4.54221
Spine1  -5.97767 0.51569 -1.73228
HEad  -23.1157 -1.19156 1.1674
LeftShoulder1  8.52474 -13.66 -43.1955
LeftArm  6.99221 -0.121532 -36.9762
LeftForeArm  -176.369 -62.9902 -161.991
LeftHand  -0.25398 0.0180481 5.50724
RightShoulder  5.35969 10.437 32.5028
RightArm  6.28252 -7.09467 43.7099
RightForeArm  168.198 64.4741 159.232
RightHand  -1.08762 2.61849 -15.9426
LeftUpLeg  -27.2041 19.0103 -6.2492
LeftLeg  27.5133 4.02877 2.61777
LeftFoot  -6.64381 0.196325 -3.81645
LeftToes  1.06245e-005 4.65868e-005 -8.65517e-006
1977
root  9.06373 38.4487 -6.83992 95.8661 84.9044 88.7783
RightUpLeg  -32.757 -24.492 -1.99623
RightLeg  37.4595 -5.90182 -5.1086
RightFoot  -11.3972 -0.0763352 -0.103617
RightToes  0.000481921 0.542163 -0.142578
Spine  28.5762 -0.904267 4.95115
Spine1  -5.86686 0.276202 -1.70535
HEad  -24.2021 -1.76036 1.20205
LeftShoulder1  8.578 -13.8322 -43.0237
LeftArm  7.72435 -1.12309 -37.5594
LeftForeArm  -176.548 -63.269 -161.763
LeftHand  -0.25398 0.0180481 5.50724
RightShoulder  5.33516 10.443 32.3102
RightArm  6.21947 -6.02015 43.8563
RightForeArm  167.621 64.2577 159.361
RightHand  -1.1065 2.71095 -16.0365
LeftUpLeg  -29.2361 18.4531 -7.22787
LeftLeg  29.2556 3.89302 2.70393
LeftFoot  -7.22087 0.179525 -3.78854
LeftToes  1.06245e-005 4.65868e-005 -8.65517e-006
1978
root  8.90246 38.1944 -6.981 97.1488 84.881 89.4649
RightUpLeg  -34.0777 -21.1896 -2.18139
RightLeg  38.9469 -8.74226 -7.79215
RightFoot  -12.3075 -0.0922785 -1.23689
RightToes  0.000481921 0.542163 -0.142578
Spine  29.6499 -1.25497 6.3213
Spine1  -5.97052 0.390958 -2.77408
HEad  -25.2892 -2.44535 1.08677
LeftShoulder1  8.6399 -14.0311 -42.8311
LeftArm  8.41158 -2.30181 -38.3333
LeftForeArm  -176.645 -63.4838 -161.589
LeftHand  -0.25398 0.0180481 5.50724
RightShoulder  5.32065 10.4813 32.1009
RightArm  5.89974 -4.82498 43.9423
RightForeArm  167.231 64.2112 159.361
RightHand  -1.10692 2.71469 -16.0353
LeftUpLeg  -31.3246 17.8248 -7.72332
LeftLeg  31.4942 4.24185 3.15366
LeftFoot  -8.00174 0.156927 -3.73214
LeftToes  1.06245e-005 4.65868e-005 -8.65517e-006
1979
root  8.72826 37.89 -7.12582 94.5321 85.0723 86.4111
RightUpLeg  -35.9871 -18.4136 -2.67532
RightLeg  41.4875 -10.4327 -10.0104
RightFoot  -12.3271 -0.0842636 -0.0759934
RightToes  0.000481921 0.542163 -0.142578
Spine  30.9566 -1.69824 7.73152
Spine1  -6.3827 0.556013 -4.08772
HEad  -26.1528 -2.72622 0.833456
LeftShoulder1  8.65317 -14.1213 -42.667
LeftArm  8.70492 -3.23302 -39.2217
LeftForeArm  -176.5 -63.4673 -161.616
LeftHand  -0.25398 0.0180481 5.50724
RightShoulder  5.34668 10.6028 31.957
RightArm  5.68064 -3.24428 43.7194
RightForeArm  166.849 64.3535 159.196
RightHand  -1.09438 2.60405 -16.067
LeftUpLeg  -33.5091 17.008 -7.87579
LeftLeg  34.2853 4.97672 4.00296
LeftFoot  -8.98078 0.124487 -3.4196
LeftToes  1.06245e-005 4.65868e-005 -8.65517e-006
1980
root  8.56922 37.5301 -7.24153 92.4772 85.3528 84.0252
RightUpLeg  -38.0038 -17.7713 -2.48082
RightLeg  43.9484 -10.1812 -10.6351
RightFoot  -12.4391 -0.0779931 0.668986
RightToes  0.000481921 0.542163 -0.142578
Spine  32.1701 -2.04037 8.49187
Spine1  -6.66262 0.502866 -4.28709
HEad  -26.7034 -2.53741 0.553851
LeftShoulder1  8.66252 -14.1379 -42.6733
LeftArm  8.56918 -3.87075 -40.0142
LeftForeArm  -176.293 -63.3263 -161.744
LeftHand  -0.25398 0.0180481 5.50724
RightShoulder  5.38284 10.7723 31.7587
RightArm  5.54369 -1.37325 43.3416
RightForeArm  166.197 64.6386 158.873
RightHand  -1.10973 2.58738 -16.3168
LeftUpLeg  -35.7508 16.1183 -7.81295
LeftLeg  37.4361 5.5898 4.94591
LeftFoot  -10.049 0.0940603 -2.99498
LeftToes  1.06245e-005 4.65868e-005 -8.65517e-006
1981
root  8.43197 37.1224 -7.31912 91.3043 85.6883 82.6256
RightUpLeg  -39.9019 -18.3054 -1.75015
RightLeg  46.2806 -9.43346 -10.7246
RightFoot  -13.2806 -0.0885812 0.112902
RightToes  0.000481921 0.542163 -0.142578
Spine  33.1669 -2.12449 8.76609
Spine1  -6.49961 0.381098 -3.39686
HEad  -27.0626 -2.3324 0.483717
LeftShoulder1  8.73843 -14.1805 -42.9608
LeftArm  8.32962 -4.58509 -40.3404
LeftForeArm  -176.32 -63.3183 -161.747
LeftHand  -0.25398 0.0180481 5.50724
RightShoulder  5.36161 10.8466 31.4125
RightArm  5.24993 0.378916 43.1675
RightForeArm  165.436 64.9556 158.503
RightHand  -1.16697 2.79484 -16.7227
LeftUpLeg  -37.9582 15.5445 -7.6461
LeftLeg  40.7406 5.79429 5.70747
LeftFoot  -11.2206 0.0700561 -2.66203
LeftToes  1.06245e-005 4.65868e-005 -8.65517e-006
1982
root  8.31816 36.6665 -7.37231 88.0393 85.9547 79.3564
RightUpLeg  -41.7257 -18.7427 -1.20731
RightLeg  48.9989 -8.81753 -11.0502
RightFoot  -14.3828 -0.10695 -0.385197
RightToes  0.000481921 0.542163 -0.142578
Spine  34.0883 -2.10605 8.96461
Spine1  -6.05149 0.400119 -2.69477
HEad  -27.4124 -2.43386 0.79205
LeftShoulder1  8.83181 -14.2416 -43.29
LeftArm  8.13943 -5.56327 -40.0992
LeftForeArm  -176.539 -63.5846 -161.52
LeftHand  -0.25398 0.0180481 5.50724
RightShoulder  5.30562 10.8043 31.1295
RightArm  4.76682 1.74556 43.2612
RightForeArm  164.905 65.2606 158.159
RightHand  -1.21543 2.99912 -16.9959
LeftUpLeg  -39.976 15.4197 -7.48859
LeftLeg  44.1817 5.73741 6.3446
LeftFoot  -12.607 0.0480553 -2.48196
LeftToes  1.06245e-005 4.65868e-005 -8.65517e-006
